<svg xmlns="http://www.w3.org/2000/svg" width="1400" height="620" viewBox="0 0 1400 620">
<defs>
  <linearGradient id="bg" x1="0" y1="0" x2="1" y2="1"><stop stop-color="#090910"/><stop offset="1" stop-color="#171127"/></linearGradient>
  <linearGradient id="skin" x1="0" y1="0" x2="1" y2="1"><stop stop-color="#d9a98f"/><stop offset="1" stop-color="#8b5d70"/></linearGradient>
  <linearGradient id="coat" x1="0" y1="0" x2="1" y2="1"><stop stop-color="#7c3aed"/><stop offset="1" stop-color="#312e81"/></linearGradient>
  <filter id="blur"><feGaussianBlur stdDeviation="6"/></filter>
  <pattern id="grid" width="24" height="24" patternUnits="userSpaceOnUse"><path d="M24 0H0V24" fill="none" stroke="#fff" stroke-opacity=".07"/></pattern>
</defs>
<rect width="1400" height="620" rx="28" fill="url(#bg)"/>
<rect x="24" y="24" width="652" height="572" rx="22" fill="#0d0d17"/>
<rect x="724" y="24" width="652" height="572" rx="22" fill="#0d0d17"/>
<text x="58" y="72" font-family="Arial,sans-serif" font-size="22" font-weight="700" fill="#cbd5e1">ANTES</text>
<text x="58" y="101" font-family="Arial,sans-serif" font-size="15" fill="#64748b">entrada degradada / baja resolución</text>
<text x="758" y="72" font-family="Arial,sans-serif" font-size="22" font-weight="700" fill="#c4b5fd">DESPUÉS</text>
<text x="758" y="101" font-family="Arial,sans-serif" font-size="15" fill="#64748b">vista ilustrativa de detalle restaurado</text>

<g transform="translate(24 24)" filter="url(#blur)">
  <ellipse cx="326" cy="365" rx="178" ry="190" fill="#201a31"/>
  <path d="M190 540C198 425 255 387 326 387s128 38 136 153" fill="url(#coat)"/>
  <ellipse cx="326" cy="270" rx="108" ry="128" fill="url(#skin)"/>
  <path d="M225 252c12-99 193-127 211-2-41-56-167-59-211 2Z" fill="#17141d"/>
  <ellipse cx="286" cy="280" rx="13" ry="8" fill="#201a21"/>
  <ellipse cx="367" cy="280" rx="13" ry="8" fill="#201a21"/>
  <path d="M294 337c25 19 49 19 70 0" stroke="#6b3d50" stroke-width="8" fill="none"/>
</g>
<rect x="24" y="24" width="652" height="572" rx="22" fill="url(#grid)"/>

<g transform="translate(724 24)">
  <ellipse cx="326" cy="365" rx="178" ry="190" fill="#201a31"/>
  <path d="M190 540C198 425 255 387 326 387s128 38 136 153" fill="url(#coat)"/>
  <ellipse cx="326" cy="270" rx="108" ry="128" fill="url(#skin)"/>
  <path d="M225 252c12-99 193-127 211-2-41-56-167-59-211 2Z" fill="#17141d"/>
  <path d="M264 274q22-16 44 0" stroke="#3a2530" stroke-width="5" fill="none" stroke-linecap="round"/>
  <path d="M344 274q22-16 44 0" stroke="#3a2530" stroke-width="5" fill="none" stroke-linecap="round"/>
  <ellipse cx="286" cy="281" rx="10" ry="7" fill="#18151a"/><circle cx="289" cy="278" r="2.5" fill="#fff"/>
  <ellipse cx="367" cy="281" rx="10" ry="7" fill="#18151a"/><circle cx="370" cy="278" r="2.5" fill="#fff"/>
  <path d="M326 288c-6 18-8 35 5 44" stroke="#9a6670" stroke-width="4" fill="none" stroke-linecap="round"/>
  <path d="M294 337c25 19 49 19 70 0" stroke="#7e4056" stroke-width="6" fill="none" stroke-linecap="round"/>
  <g stroke="#f2c8b0" stroke-opacity=".34" stroke-width="2">
    <path d="M256 310l16-4M254 326l17-3M382 310l16 4M381 326l17 3M303 239l12-3M338 239l12 3"/>
  </g>
  <circle cx="273" cy="318" r="2" fill="#d7a48d"/><circle cx="280" cy="326" r="1.6" fill="#d7a48d"/>
  <circle cx="379" cy="318" r="2" fill="#d7a48d"/><circle cx="372" cy="328" r="1.6" fill="#d7a48d"/>
</g>

<rect x="695" y="42" width="10" height="536" rx="5" fill="#7c3aed"/>
<circle cx="700" cy="310" r="26" fill="#fff"/><path d="M690 310h20M695 304l-6 6 6 6M705 304l6 6-6 6" stroke="#111827" stroke-width="3" fill="none" stroke-linecap="round" stroke-linejoin="round"/>
<text x="700" y="604" text-anchor="middle" font-family="Arial,sans-serif" font-size="13" fill="#64748b">ILUSTRACIÓN · NO BENCHMARK</text>
</svg>